<svg width="22" height="28" viewBox="0 0 22 28" fill="none" xmlns="http://www.w3.org/2000/svg">
<path d="M20.3333 7.33335H16.3333V6.00002C16.3333 4.58553 15.7714 3.22898 14.7712 2.22878C13.771 1.22859 12.4145 0.666687 11 0.666687C9.58549 0.666687 8.22894 1.22859 7.22874 2.22878C6.22855 3.22898 5.66665 4.58553 5.66665 6.00002V7.33335H1.66665C1.31302 7.33335 0.973886 7.47383 0.723838 7.72388C0.473789 7.97393 0.333313 8.31306 0.333313 8.66669L0.333313 23.3334C0.333313 24.3942 0.75474 25.4116 1.50489 26.1618C2.25503 26.9119 3.27245 27.3334 4.33331 27.3334H17.6666C18.7275 27.3334 19.7449 26.9119 20.4951 26.1618C21.2452 25.4116 21.6666 24.3942 21.6666 23.3334V8.66669C21.6666 8.31306 21.5262 7.97393 21.2761 7.72388C21.0261 7.47383 20.6869 7.33335 20.3333 7.33335ZM8.33331 6.00002C8.33331 5.29278 8.61427 4.6145 9.11436 4.1144C9.61446 3.61431 10.2927 3.33335 11 3.33335C11.7072 3.33335 12.3855 3.61431 12.8856 4.1144C13.3857 4.6145 13.6666 5.29278 13.6666 6.00002V7.33335L8.33331 7.33335V6.00002ZM19 23.3334C19 23.687 18.8595 24.0261 18.6095 24.2762C18.3594 24.5262 18.0203 24.6667 17.6666 24.6667H4.33331C3.97969 24.6667 3.64055 24.5262 3.3905 24.2762C3.14046 24.0261 2.99998 23.687 2.99998 23.3334L2.99998 10H5.66665V11.3334C5.66665 11.687 5.80712 12.0261 6.05717 12.2762C6.30722 12.5262 6.64636 12.6667 6.99998 12.6667C7.3536 12.6667 7.69274 12.5262 7.94279 12.2762C8.19284 12.0261 8.33331 11.687 8.33331 11.3334V10H13.6666V11.3334C13.6666 11.687 13.8071 12.0261 14.0572 12.2762C14.3072 12.5262 14.6464 12.6667 15 12.6667C15.3536 12.6667 15.6927 12.5262 15.9428 12.2762C16.1928 12.0261 16.3333 11.687 16.3333 11.3334V10L19 10V23.3334Z" fill="#403C39"/>
</svg>
